<svg width="30" height="30" viewBox="0 0 30 30" fill="none" xmlns="http://www.w3.org/2000/svg">
    <rect width="30" height="30" fill="#2E2E2E"/>
    <path d="M10.3977 22.5H6.5625V10.9943H10.3977V22.5ZM8.48088 9.46023C7.42006 9.46023 6.5625 8.60037 6.5625 7.54185C6.5625 6.48332 7.42159 5.625 8.48088 5.625C9.53787 5.625 10.3977 6.48486 10.3977 7.54185C10.3977 8.60037 9.53787 9.46023 8.48088 9.46023ZM24.2045 22.5H20.5174V16.9006C20.5174 15.5651 20.492 13.8477 18.6005 13.8477C16.6806 13.8477 16.3853 15.302 16.3853 16.8039V22.5H12.6989V10.9859H16.238V12.5591H16.2879C16.7803 11.654 17.9838 10.6998 19.7787 10.6998C23.5142 10.6998 24.2045 13.0845 24.2045 16.1849V22.5Z" fill="white"/>
</svg>
