<svg width="30" height="30" viewBox="0 0 30 30" fill="none" xmlns="http://www.w3.org/2000/svg">
    <rect width="30" height="30" fill="#2E2E2E"/>
    <path d="M24.375 9.30325C23.6838 9.61012 22.9429 9.81617 22.164 9.90969C22.959 9.43331 23.5698 8.67927 23.8562 7.78203C23.1139 8.22188 22.2883 8.54191 21.4129 8.71434C20.7115 7.96616 19.712 7.5 18.6058 7.5C16.481 7.5 14.7582 9.22142 14.7582 11.3462C14.7582 11.6472 14.7932 11.9409 14.859 12.2229C11.6616 12.0622 8.82818 10.5307 6.92995 8.20289C6.59823 8.7728 6.40972 9.43331 6.40972 10.1377C6.40972 11.4718 7.08777 12.6496 8.12091 13.3408C7.48962 13.3204 6.89634 13.1465 6.37757 12.8586C6.37757 12.8747 6.37757 12.8908 6.37757 12.9068C6.37757 14.7715 7.70444 16.3248 9.46239 16.6799C9.1409 16.7676 8.80042 16.8144 8.4497 16.8144C8.20128 16.8144 7.96016 16.791 7.72489 16.7442C8.21589 18.2713 9.63628 19.3863 11.3182 19.4169C10.0031 20.4486 8.34449 21.0624 6.54124 21.0624C6.22998 21.0624 5.92457 21.0448 5.625 21.0083C7.32596 22.1014 9.3484 22.737 11.5214 22.737C18.597 22.737 22.4665 16.8757 22.4665 11.7933C22.4665 11.6267 22.4622 11.4587 22.4563 11.295C23.2074 10.7529 23.8592 10.0748 24.375 9.30325Z" fill="white"/>
</svg>
