<svg width="30" height="30" viewBox="0 0 30 30" fill="none" xmlns="http://www.w3.org/2000/svg">
    <rect width="30" height="30" fill="#2E2E2E"/>
    <path d="M6.86927 13.9575C11.7279 11.8406 14.9678 10.4451 16.5888 9.77083C21.2173 7.84569 22.1791 7.51127 22.8059 7.50011C22.9438 7.4978 23.2521 7.53196 23.4518 7.694C23.6204 7.83081 23.6668 8.01563 23.689 8.14535C23.7112 8.27506 23.7388 8.57056 23.7168 8.80145C23.466 11.4368 22.3807 17.8322 21.8286 20.7839C21.595 22.0328 21.1349 22.4516 20.6896 22.4926C19.7217 22.5816 18.9868 21.8529 18.0494 21.2385C16.5825 20.2769 15.7538 19.6783 14.3299 18.74C12.6844 17.6557 13.7511 17.0597 14.6889 16.0857C14.9343 15.8308 19.1987 11.952 19.2813 11.6001C19.2916 11.5561 19.3012 11.392 19.2037 11.3054C19.1063 11.2188 18.9624 11.2484 18.8587 11.272C18.7115 11.3054 16.3682 12.8542 11.8286 15.9186C11.1635 16.3753 10.561 16.5979 10.0212 16.5862C9.42611 16.5734 8.28141 16.2497 7.43044 15.9731C6.3867 15.6338 5.55715 15.4545 5.62938 14.8783C5.66701 14.5781 6.08031 14.2712 6.86927 13.9575Z" fill="white"/>
</svg>
