<?xml version="1.0" encoding="utf-8"?>
<svg xmlns="http://www.w3.org/2000/svg" height="148px" viewBox="0 0 306 148">
<path fill="#666666" d="M72.393,136.282c-62.002,2.218-102.771-83.207-0.877-110C-24.363,54.667,13.453,135.491,72.393,136.282z
	 M122.708,12.97c-7.211,0.065-14.404,2.864-23.15,5.114c35.246-5.552,67.56-2.094,46.809,69.435
	C166.214,30.877,149.191,12.731,122.708,12.97z"/>
<path fill="#00AAD4" d="M68.917,16.873c-0.47,3.83,0.8,6.47,2.668,9.416c-138.234,39.446-8.325,180.256,73.028,66.146
	C59.43,214.803-76.811,63.04,68.917,16.873z M91.541,11.139c3.901,1.57,6.176,4.624,7.946,7.424
	c39.979-10.228,68.003-2.533,46.808,69.026C167.453,35.187,159.398-2.566,91.541,11.139z M77.469,103.479
	c-0.675,5.883-3.77,14.469-0.302,15.147c2.037,0.321,2.37-10.538,7.885-15.087c-0.104,4.427-2.183,10.037,0.303,11.949
	c4.162,2.62,3.613-11.543,9.323-15.556c0.742,3.481-2.237,11.396,2.321,12.357c2.777,0.316,4.386-3.101,5.764-4.949
	c-7.756,7.726-3.233-3.575-3.883-7.242c-0.698-4.83-4.172-3.114-5.58-1.63c-2.156,2.333-3.188,4.667-4.609,7.001
	c-0.553-2.187-1.258-4.386-2.912-3.922c-2.264,0.736-3.942,3.118-5.338,5.854C79.455,99.804,77.811,101.372,77.469,103.479z
	 M116.429,91.019c-2.7-3.179-4.857-2.332-6.752-0.553c-6.198,5.504-7.209,12.188-6.862,17.157c0.278,2.594,3.18,3.741,5.418-0.253
	c1.902-3.358,5.198-9.069,6.189-10.835c0.191,3.05-2.314,7.483,1.228,9.039c3.256,0.582,5.067-7.585,7.298-11.228l-6.186,9.029
	c1.368-6.858-0.159-13.481-3.165-8.603c-1.715,2.816-3.118,5.166-5.146,8.451c-1.221,1.788-2.496,4.185-1.286-3.159
	C109.301,92.184,113.164,91.107,116.429,91.019z M124.175,90.865c2.268-1.049,5.792-2.315,2.426-4.768
	c-2.632-1.727-3.615,0.024-4.672,1.75c-3.137,5.057,2.402,3.698,3.397,7.544c-0.212,3.637-3.191,6.741-4.488,8.993
	c3.896-0.304,5.593-2.438,7.559-4.767C131.543,94.575,126.748,92.497,124.175,90.865z M138.004,84.226
	c-2.608,7.705-7.671,8.19-6.37,11.889c2.147,4.86,3.8,1.942,5.035,0.241c1.697-2.322,5.383-5.609,7.764-3.74
	c2.513-2.094-3.097-1.993-5.823-0.664c-0.429,0.208,2.366-4.575,3.094-6.096c0.835-1.718,1.73-5.752-1.881-5.492
	c-3.901,0.255-6.643,2.07-8.612,4.889c-2.712,4.313-0.372,2.92,1.638,1.025C135.12,84.205,139.191,79.969,138.004,84.226z
	 M162.164,94.37c2.203-0.195,7.481-4.911,9.227-10.278c-2.717-3.428-10.302-6.231-13.271-5.969
	c-0.372,2.349-1.931,9.824-1.65,12.986C157.196,92.782,160.127,94.26,162.164,94.37z M193.651,41.094
	c-1.011,0.572-4.92,7.675-8.813,19.314c-3.438,10.248-5.362,21.229-4.938,26.02c0.829,2.822,2.25,5.786,5.067,7.081
	c1.456-0.998,3.301-4.153,5.731-8.327c4.371-7.336,8.406-13.003,13.836-19.275c3.415-3.971,6.989-6.121,7.276-6.146
	c-3.508,10.543-4.022,14.546-3.743,17.707c0.501,5.651,2.623,10.001,9.999,9.349c2.202-0.195,6.127-2.763,7.89-4.656
	c-0.051-0.575-0.527-1.595-1.031-1.84c-0.862,0.077-2.598,1.195-3.938,1.313c-1.533,0.136-2.445-0.362-2.726-3.523
	c-0.694-7.854,4.7-21.074,7.75-25.881c1.546-2.165,2.592-2.354,2.566-2.641c-1.457-2.284-4.002-4.858-7.259-4.57
	c-6.227,0.551-14.392,10.83-18.819,16.434c-1.999,2.495-7.801,11.117-11.442,15.783c0.249-5.911,9.104-20.402,11.358-27.648
	C200.7,45.49,197.098,41.852,193.651,41.094z M264.752,41.657c-2.875-3.028-5.814-4.603-8.722-4.731
	c-12.644,1.119-25.376,20.877-23.985,36.586c0.678,7.662,6.384,13.24,15.281,13.417c5.916-1.874,12.809-7.987,17.886-16.063
	c-0.529-0.532-1.051-0.969-1.772-1.484c-3.641,4.666-9.641,12.147-16.537,12.758c-3.64,0.322-4.796-4.017-5.084-7.273
	c-0.076-0.862-0.058-1.731-0.125-2.498C257.401,64.414,265.184,57.451,264.752,41.657z M258.422,45.402
	c0.292,8.759-6.58,17.284-16.284,23.259C244.152,56.512,251.514,46.979,258.422,45.402z M279.861,43.312
	c-3.843,12.215-6.242,25.459-5.691,31.686c0.398,4.502,8.161,9.317,14.5,8.95c2.091-0.378,8.58-5.586,9.822-7.917
	c-0.13-0.375-0.468-0.924-0.798-1.378c-2.495,2.346-5.904,4.191-9.693,5.009c-2.036-0.108-3.321-1.539-3.576-4.412
	c-0.694-7.855,2.034-20.647,7.271-33.467c4.398-0.486,8.266-1.504,11.229-2.925c-0.093-1.053-0.665-2.065-1.291-2.588
	c-2.657,0.524-5.33,0.858-7.82,1.079c2.687-5.645,4.75-9.592,8.158-14.72c-1.372-1.327-7.681-2.795-10.268-2.566
	c-2.006,1.334-6.832,10.064-9.994,17.971c-2.595,0.133-5.685,0.117-9.055,0.221c0.152,1.725,1.103,4.827,1.745,5.542L279.861,43.312
	z"/>
<path fill="#0088AA" d="M95.758,24.39c-1.662,4.567-8.277,6.354-14.779,3.988c-6.5-2.365-10.422-7.986-8.76-12.553
	c1.662-4.568,8.278-6.354,14.78-3.989C93.497,14.202,97.42,19.822,95.758,24.39z M66.976,48.015
	c0.82,3.035-14.193,59.158-14.072,73.63c0.969,10.045,10.627,11.194,21.351,8.449c25.52-7.514,43.802-17.909,65.264-27.038
	c5.598-2.859,5.441-5.199,6.238-7.625c-21.539,10.153-43.168,20.108-67.377,25.39c-4.377,0.223-6.458,0.615-5.852-7.313
	c2.485-21.928,9.272-40.613,14.193-62.54c2.036-13.439-12-11.887-17.076-9.35c-19.046,9.898-34.809,18.875-51.92,30.055
	L66.976,48.015z"/>
</svg>
