<svg width="20" height="20" viewBox="0 0 20 20" fill="none" xmlns="http://www.w3.org/2000/svg">
    <path d="M0 10C0 4.47715 4.47715 0 10 0C15.5228 0 20 4.47715 20 10C20 15.5228 15.5228 20 10 20C4.47715 20 0 15.5228 0 10Z" fill="url(#paint0_linear_75_975)"/>
    <path d="M10.8029 7.3339C9.15692 7.3339 7.51092 7.3339 5.86996 7.3339C5.86996 6.58893 5.86996 5.84898 5.86996 5.104C8.63846 5.104 11.412 5.104 14.1906 5.104C14.1201 6.38758 13.8382 7.03189 13.506 7.58055C13.1687 8.12419 12.7811 8.56714 12.2778 9.12588C11.2157 10.3037 10.1536 11.4816 9.09149 12.6595C10.8029 12.6595 12.5144 12.6595 14.2308 12.6595C14.2308 13.3994 14.2308 14.1444 14.2308 14.8844C11.412 14.8844 8.58812 14.8844 5.76929 14.8844C5.76929 14.0186 5.88003 13.4951 6.14681 12.9162C6.41359 12.3373 6.83642 11.7132 7.7324 10.7266C8.75423 9.59401 9.77606 8.46647 10.8029 7.3339Z" fill="#FAB739"/>
    <defs>
        <linearGradient id="paint0_linear_75_975" x1="10" y1="0" x2="10" y2="20" gradientUnits="userSpaceOnUse">
            <stop stop-color="#515154"/>
            <stop offset="1" stop-color="#2B2B2E"/>
        </linearGradient>
    </defs>
</svg>
