<svg width="20" height="20" viewBox="0 0 20 20" fill="none" xmlns="http://www.w3.org/2000/svg">
    <path d="M0 10C0 4.47715 4.47715 0 10 0C15.5228 0 20 4.47715 20 10C20 15.5228 15.5228 20 10 20C4.47715 20 0 15.5228 0 10Z"
          fill="url(#paint0_linear_75_876)"/>
    <path d="M10.8029 7.33366C9.15692 7.33366 7.51092 7.33366 5.86996 7.33366C5.86996 6.58868 5.86996 5.84874 5.86996 5.10376C8.63846 5.10376 11.412 5.10376 14.1906 5.10376C14.1201 6.38734 13.8382 7.03164 13.506 7.58031C13.1687 8.12394 12.7811 8.5669 12.2778 9.12563C11.2157 10.3035 10.1536 11.4814 9.09149 12.6592C10.8029 12.6592 12.5144 12.6592 14.2308 12.6592C14.2308 13.3992 14.2308 14.1442 14.2308 14.8841C11.412 14.8841 8.58812 14.8841 5.76929 14.8841C5.76929 14.0183 5.88003 13.4948 6.14681 12.916C6.41359 12.3371 6.83642 11.7129 7.7324 10.7263C8.75423 9.59376 9.77606 8.46623 10.8029 7.33366Z"
          fill="white"/>
    <defs>
        <linearGradient id="paint0_linear_75_876" x1="10" y1="0" x2="10" y2="20" gradientUnits="userSpaceOnUse">
            <stop stop-color="#F2BB44"/>
            <stop offset="1" stop-color="#F09A37"/>
        </linearGradient>
    </defs>
</svg>
