<svg xmlns="http://www.w3.org/2000/svg" height="148" viewBox="0 0 306 148"><path fill="#fff" d="M68.917 16.873c-.47 3.83.8 6.47 2.668 9.416-138.234 39.446-8.325 180.256 73.028 66.146C59.43 214.803-76.811 63.04 68.917 16.873zm22.624-5.734c3.901 1.57 6.176 4.624 7.946 7.424 39.979-10.228 68.003-2.533 46.808 69.026 21.158-52.402 13.103-90.155-54.754-76.45zm-14.072 92.34c-.675 5.883-3.77 14.469-.302 15.147 2.037.321 2.37-10.538 7.885-15.087-.104 4.427-2.183 10.037.303 11.949 4.162 2.62 3.613-11.543 9.323-15.556.742 3.481-2.237 11.396 2.321 12.357 2.777.316 4.386-3.101 5.764-4.949-7.756 7.726-3.233-3.575-3.883-7.242-.698-4.83-4.172-3.114-5.58-1.63-2.156 2.333-3.188 4.667-4.609 7.001-.553-2.187-1.258-4.386-2.912-3.922-2.264.736-3.942 3.118-5.338 5.854-.986-7.597-2.63-6.029-2.972-3.922zm38.96-12.46c-2.7-3.179-4.857-2.332-6.752-.553-6.198 5.504-7.209 12.188-6.862 17.157.278 2.594 3.18 3.741 5.418-.253 1.902-3.358 5.198-9.069 6.189-10.835.191 3.05-2.314 7.483 1.228 9.039 3.256.582 5.067-7.585 7.298-11.228l-6.186 9.029c1.368-6.858-.159-13.481-3.165-8.603-1.715 2.816-3.118 5.166-5.146 8.451-1.221 1.788-2.496 4.185-1.286-3.159 2.136-7.88 5.999-8.957 9.264-9.045zm7.746-.154c2.268-1.049 5.792-2.315 2.426-4.768-2.632-1.727-3.615.024-4.672 1.75-3.137 5.057 2.402 3.698 3.397 7.544-.212 3.637-3.191 6.741-4.488 8.993 3.896-.304 5.593-2.438 7.559-4.767 3.146-5.042-1.649-7.12-4.222-8.752zm13.829-6.639c-2.608 7.705-7.671 8.19-6.37 11.889 2.147 4.86 3.8 1.942 5.035.241 1.697-2.322 5.383-5.609 7.764-3.74 2.513-2.094-3.097-1.993-5.823-.664-.429.208 2.366-4.575 3.094-6.096.835-1.718 1.73-5.752-1.881-5.492-3.901.255-6.643 2.07-8.612 4.889-2.712 4.313-.372 2.92 1.638 1.025 2.271-2.073 6.342-6.309 5.155-2.052zm24.16 10.144c2.203-.195 7.481-4.911 9.227-10.278-2.717-3.428-10.302-6.231-13.271-5.969-.372 2.349-1.931 9.824-1.65 12.986.726 1.673 3.657 3.151 5.694 3.261zm31.487-53.276c-1.011.572-4.92 7.675-8.813 19.314-3.438 10.248-5.362 21.229-4.938 26.02.829 2.822 2.25 5.786 5.067 7.081 1.456-.998 3.301-4.153 5.731-8.327 4.371-7.336 8.406-13.003 13.836-19.275 3.415-3.971 6.989-6.121 7.276-6.146-3.508 10.543-4.022 14.546-3.743 17.707.501 5.651 2.623 10.001 9.999 9.349 2.202-.195 6.127-2.763 7.89-4.656-.051-.575-.527-1.595-1.031-1.84-.862.077-2.598 1.195-3.938 1.313-1.533.136-2.445-.362-2.726-3.523-.694-7.854 4.7-21.074 7.75-25.881 1.546-2.165 2.592-2.354 2.566-2.641-1.457-2.284-4.002-4.858-7.259-4.57-6.227.551-14.392 10.83-18.819 16.434-1.999 2.495-7.801 11.117-11.442 15.783.249-5.911 9.104-20.402 11.358-27.648-1.715-4.098-5.317-7.736-8.764-8.494zm71.101.563c-2.875-3.028-5.814-4.603-8.722-4.731-12.644 1.119-25.376 20.877-23.985 36.586.678 7.662 6.384 13.24 15.281 13.417 5.916-1.874 12.809-7.987 17.886-16.063a13.064 13.064 0 0 0-1.772-1.484c-3.641 4.666-9.641 12.147-16.537 12.758-3.64.322-4.796-4.017-5.084-7.273-.076-.862-.058-1.731-.125-2.498 15.707-7.955 23.49-14.918 23.058-30.712zm-6.33 3.745c.292 8.759-6.58 17.284-16.284 23.259 2.014-12.149 9.376-21.682 16.284-23.259zm21.439-2.09c-3.843 12.215-6.242 25.459-5.691 31.686.398 4.502 8.161 9.317 14.5 8.95 2.091-.378 8.58-5.586 9.822-7.917-.13-.375-.468-.924-.798-1.378-2.495 2.346-5.904 4.191-9.693 5.009-2.036-.108-3.321-1.539-3.576-4.412-.694-7.855 2.034-20.647 7.271-33.467 4.398-.486 8.266-1.504 11.229-2.925-.093-1.053-.665-2.065-1.291-2.588-2.657.524-5.33.858-7.82 1.079 2.687-5.645 4.75-9.592 8.158-14.72-1.372-1.327-7.681-2.795-10.268-2.566-2.006 1.334-6.832 10.064-9.994 17.971-2.595.133-5.685.117-9.055.221.152 1.725 1.103 4.827 1.745 5.542l5.461-.485z"/><path fill="#fff" d="M95.758 24.39c-1.662 4.567-8.277 6.354-14.779 3.988-6.5-2.365-10.422-7.986-8.76-12.553 1.662-4.568 8.278-6.354 14.78-3.989 6.498 2.366 10.421 7.986 8.759 12.554zM66.976 48.015c.82 3.035-14.193 59.158-14.072 73.63.969 10.045 10.627 11.194 21.351 8.449 25.52-7.514 43.802-17.909 65.264-27.038 5.598-2.859 5.441-5.199 6.238-7.625-21.539 10.153-43.168 20.108-67.377 25.39-4.377.223-6.458.615-5.852-7.313 2.485-21.928 9.272-40.613 14.193-62.54 2.036-13.439-12-11.887-17.076-9.35-19.046 9.898-34.809 18.875-51.92 30.055l49.251-23.658z"/></svg>